<?xml version="1.0" encoding="iso-8859-1"?>
<!-- Uploaded to: SVG Repo, www.svgrepo.com, Generator: SVG Repo Mixer Tools -->
<svg height="800px" width="800px" version="1.1" id="Layer_1" xmlns="http://www.w3.org/2000/svg" xmlns:xlink="http://www.w3.org/1999/xlink" 
	 viewBox="0 0 511.999 511.999" xml:space="preserve">
<path style="fill:#FECB69;" d="M503.828,59.916h-32.681L449.36,84.463l21.787,24.548c10.233-3.572,21.228-5.521,32.681-5.521V59.916
	z"/>
<path style="fill:#FFE0A2;" d="M8.171,59.916v43.574c54.749,0,99.131,44.382,99.131,99.131V312.29h49.566V202.621
	c0-54.749,44.382-99.131,99.131-99.131s99.131,44.382,99.131,99.131V312.29h49.566V202.621c0-43.296,27.76-80.105,66.451-93.61
	V59.916H8.171z"/>
<path style="fill:#4B8D8F;" d="M503.828,245.106c-8.925,18.377-27.764,31.047-49.566,31.047l-32.681,108.391l32.681,108.391h49.566
	V245.106z"/>
<path style="fill:#63ABA1;" d="M404.696,245.106c-8.924,18.376-27.764,31.047-49.566,31.047c-21.801,0-40.642-12.67-49.566-31.047
	c-8.924,18.376-27.764,31.047-49.566,31.047s-40.642-12.67-49.566-31.047c-8.924,18.376-27.764,31.047-49.566,31.047
	s-40.642-12.67-49.566-31.047c-8.924,18.376-27.764,31.047-49.566,31.047s-40.641-12.67-49.566-31.047v247.828h446.091V276.153
	C432.461,276.154,413.621,263.484,404.696,245.106z"/>
<g>
	<path style="fill:#FFFFFF;" d="M165.038,349.684h-16.34c-4.513,0-8.17-3.657-8.17-8.17c0-4.513,3.657-8.17,8.17-8.17h16.34
		c4.513,0,8.17,3.657,8.17,8.17C173.209,346.027,169.552,349.684,165.038,349.684z"/>
	<path style="fill:#FFFFFF;" d="M412.867,447.726h-16.34c-4.513,0-8.17-3.657-8.17-8.17c0-4.513,3.657-8.17,8.17-8.17h16.34
		c4.513,0,8.17,3.657,8.17,8.17C421.037,444.069,417.38,447.726,412.867,447.726z"/>
	<path style="fill:#FFFFFF;" d="M462.432,415.046h-16.34c-4.513,0-8.17-3.657-8.17-8.17c0-4.513,3.657-8.17,8.17-8.17h16.34
		c4.513,0,8.17,3.657,8.17,8.17C470.602,411.389,466.945,415.046,462.432,415.046z"/>
	<path style="fill:#FFFFFF;" d="M363.301,382.365h-16.34c-4.513,0-8.17-3.657-8.17-8.17c0-4.513,3.657-8.17,8.17-8.17h16.34
		c4.513,0,8.17,3.657,8.17,8.17C371.471,378.708,367.814,382.365,363.301,382.365z"/>
	<path style="fill:#FFFFFF;" d="M65.907,382.365h-16.34c-4.513,0-8.17-3.657-8.17-8.17c0-4.513,3.657-8.17,8.17-8.17h16.34
		c4.513,0,8.17,3.657,8.17,8.17C74.077,378.708,70.42,382.365,65.907,382.365z"/>
</g>
<path d="M503.828,51.746h-23.149v-16.34h23.149c4.513,0,8.17-3.657,8.17-8.17s-3.657-8.17-8.17-8.17H8.171
	c-4.513,0-8.17,3.657-8.17,8.17s3.657,8.17,8.17,8.17h25.327v16.34H8.171c-4.513,0-8.17,3.657-8.17,8.17s3.657,8.17,8.17,8.17
	h495.656c4.513,0,8.17-3.657,8.17-8.17S508.341,51.746,503.828,51.746z M464.339,51.746H419.13v-16.34h45.208V51.746z
	 M172.936,35.405h45.208v16.34h-45.208V35.405z M156.596,51.746h-45.208v-16.34h45.208V51.746z M234.485,35.405h45.208v16.34
	h-45.208V35.405z M296.033,35.405h45.208v16.34h-45.208V35.405z M357.582,35.405h45.208v16.34h-45.208V35.405z M49.839,35.405
	h45.208v16.34H49.839V35.405z"/>
<path d="M355.131,251.642c4.513,0,8.17-3.657,8.17-8.17v-40.851c0-59.166-48.135-107.301-107.301-107.301
	s-107.301,48.135-107.301,107.301v40.851c0,4.513,3.657,8.17,8.17,8.17s8.17-3.657,8.17-8.17v-40.851
	c0-50.156,40.805-90.961,90.961-90.961s90.961,40.805,90.961,90.961v40.851C346.961,247.985,350.619,251.642,355.131,251.642z"/>
<path d="M107.303,220.596c4.513,0,8.17-3.657,8.17-8.17v-9.804c0-59.166-48.135-107.301-107.301-107.301
	c-4.513,0-8.17,3.657-8.17,8.17c0,4.513,3.657,8.17,8.17,8.17c50.156,0,90.961,40.805,90.961,90.961v9.804
	C99.132,216.939,102.79,220.596,107.303,220.596z"/>
<path d="M503.828,95.32c-59.166,0-107.301,48.135-107.301,107.301v9.804c0,4.513,3.657,8.17,8.17,8.17c4.513,0,8.17-3.657,8.17-8.17
	v-9.804c0-50.156,40.805-90.961,90.961-90.961c4.513,0,8.17-3.657,8.17-8.17C511.998,98.977,508.341,95.32,503.828,95.32z"/>
<path d="M507.398,237.757c-4.062-1.972-8.947-0.279-10.918,3.78c-7.922,16.313-24.099,26.445-42.217,26.445
	s-34.294-10.133-42.217-26.445c-1.366-2.814-4.22-4.601-7.349-4.601c-3.129,0-5.983,1.788-7.349,4.601
	c-7.922,16.313-24.099,26.445-42.217,26.445s-34.294-10.133-42.217-26.445c-1.366-2.814-4.22-4.601-7.349-4.601
	s-5.983,1.788-7.349,4.601c-7.922,16.313-24.099,26.445-42.217,26.445c-18.118,0-34.294-10.133-42.217-26.445
	c-1.366-2.814-4.22-4.601-7.349-4.601s-5.983,1.788-7.349,4.601c-7.922,16.313-24.099,26.445-42.217,26.445
	s-34.294-10.133-42.217-26.445c-1.366-2.814-4.22-4.601-7.349-4.601c-3.129,0-5.983,1.788-7.349,4.601
	c-7.922,16.313-24.099,26.445-42.217,26.445s-34.295-10.132-42.218-26.445c-1.971-4.059-6.857-5.753-10.918-3.78
	c-4.059,1.971-5.751,6.859-3.78,10.918c10.516,21.655,32.856,35.648,56.914,35.648c19.409,0,37.698-9.106,49.566-23.996
	c11.867,14.89,30.157,23.996,49.566,23.996s37.698-9.106,49.566-23.996c11.867,14.89,30.157,23.996,49.566,23.996
	s37.698-9.106,49.566-23.996c11.867,14.89,30.157,23.996,49.566,23.996c19.409,0,37.698-9.106,49.566-23.996
	c11.867,14.89,30.157,23.996,49.566,23.996c24.058,0,46.399-13.993,56.914-35.648C513.148,244.616,511.455,239.728,507.398,237.757z
	"/>
</svg>