<?xml version="1.0" encoding="iso-8859-1"?>
<!-- Uploaded to: SVG Repo, www.svgrepo.com, Generator: SVG Repo Mixer Tools -->
<svg version="1.1" id="Layer_1" xmlns="http://www.w3.org/2000/svg" xmlns:xlink="http://www.w3.org/1999/xlink" 
	 viewBox="0 0 512 512" xml:space="preserve">
<polygon style="fill:#F37C4A;" points="482.043,315.915 482.043,403.064 449.362,403.064 427.574,294.128 "/>
<polygon style="fill:#F7A676;" points="449.362,272.34 449.362,403.064 302.298,403.064 302.298,315.915 "/>
<polygon style="fill:#F37C4A;" points="324.085,130.723 324.085,185.191 269.617,185.191 226.043,130.723 "/>
<rect x="29.957" y="130.723" style="fill:#F7A676;" width="239.66" height="54.468"/>
<polygon style="fill:#F37C4A;" points="438.468,130.723 438.468,250.553 482.043,228.766 482.043,130.723 "/>
<g>
	<polygon style="fill:#F7A676;" points="302.298,130.723 302.298,228.766 449.362,261.447 449.362,130.723 	"/>
	<polygon style="fill:#F7A676;" points="482.043,228.766 482.043,315.915 449.362,315.915 416.681,272.34 449.362,228.766 	"/>
</g>
<rect x="302.298" y="228.766" style="fill:#FBCFA3;" width="147.064" height="87.149"/>
<polygon style="fill:#F7A676;" points="471.149,108.936 438.468,125.277 471.149,141.617 503.83,141.617 503.83,108.936 "/>
<rect x="8.17" y="108.936" style="fill:#FBCFA3;" width="462.979" height="32.681"/>
<path d="M503.83,100.766H8.17c-4.513,0-8.17,3.658-8.17,8.17v32.681c0,4.512,3.657,8.17,8.17,8.17h13.617v253.277
	c0,4.512,3.657,8.17,8.17,8.17s8.17-3.658,8.17-8.17V193.362h231.489c4.513,0,8.17-3.658,8.17-8.17s-3.657-8.17-8.17-8.17H38.128
	v-27.234h256v253.277c0,4.512,3.657,8.17,8.17,8.17h179.745c4.513,0,8.17-3.658,8.17-8.17V149.787h13.617
	c4.513,0,8.17-3.658,8.17-8.17v-32.681C512,104.424,508.343,100.766,503.83,100.766z M473.872,307.745H310.468v-70.809h163.404
	V307.745z M310.468,394.894v-70.809h163.404v70.809H310.468z M473.872,220.596H310.468v-70.809h163.404V220.596z M495.66,133.447
	H16.34v-16.34H495.66V133.447z"/>
<path d="M367.66,280.511h49.021c4.513,0,8.17-3.658,8.17-8.17c0-4.512-3.657-8.17-8.17-8.17H367.66c-4.513,0-8.17,3.658-8.17,8.17
	C359.489,276.853,363.146,280.511,367.66,280.511z"/>
<path d="M367.66,193.362h49.021c4.513,0,8.17-3.658,8.17-8.17s-3.657-8.17-8.17-8.17H367.66c-4.513,0-8.17,3.658-8.17,8.17
	S363.146,193.362,367.66,193.362z"/>
<path d="M416.681,351.319H367.66c-4.513,0-8.17,3.658-8.17,8.17s3.657,8.17,8.17,8.17h49.021c4.513,0,8.17-3.658,8.17-8.17
	S421.194,351.319,416.681,351.319z"/>
</svg>