<?xml version="1.0" encoding="iso-8859-1"?>
<!-- Uploaded to: SVG Repo, www.svgrepo.com, Generator: SVG Repo Mixer Tools -->
<svg version="1.1" id="Layer_1" xmlns="http://www.w3.org/2000/svg" xmlns:xlink="http://www.w3.org/1999/xlink" 
	 viewBox="0 0 512 512" xml:space="preserve">
<polygon style="fill:#8CC63F;" points="388.242,240.712 388.242,382.098 360.11,359.365 331.978,382.098 331.978,240.712 "/>
<path style="fill:#7EAF31;" d="M388.242,240.712v25.575c-3.421-0.364-6.922-0.546-10.491-0.546h-45.773v-25.029H388.242z"/>
<path style="fill:#FDBB00;" d="M314.928,241.848v37.714c0,23.324-18.971,42.295-42.295,42.295H104.898
	c-23.313,0-42.295-18.971-42.295-42.295v-37.714h23.87v37.714c0,10.162,8.275,18.425,18.425,18.425h167.735
	c10.162,0,18.425-8.263,18.425-18.425v-37.714L314.928,241.848L314.928,241.848z"/>
<g>
	<rect x="62.607" y="241.845" style="fill:#EDAB06;" width="23.87" height="23.892"/>
	<rect x="291.062" y="241.845" style="fill:#EDAB06;" width="23.87" height="23.892"/>
	<path style="fill:#EDAB06;" d="M152.867,167.715h-36.364c-4.709,0-8.525,3.817-8.525,8.525s3.816,8.525,8.525,8.525h8.927v29.688
		h17.05v-29.688h10.387c4.709,0,8.525-3.817,8.525-8.525S157.576,167.715,152.867,167.715z"/>
	<path style="fill:#EDAB06;" d="M289.234,167.715H252.87c-4.709,0-8.525,3.817-8.525,8.525s3.816,8.525,8.525,8.525h9.657v29.688
		h17.05v-29.688h9.657c4.709,0,8.525-3.817,8.525-8.525S293.942,167.715,289.234,167.715z"/>
	<path style="fill:#EDAB06;" d="M221.051,167.715h-36.364c-4.709,0-8.525,3.817-8.525,8.525s3.816,8.525,8.525,8.525h9.657v29.688
		h17.05v-29.688h9.657c4.709,0,8.525-3.817,8.525-8.525S225.759,167.715,221.051,167.715z"/>
	<path style="fill:#EDAB06;" d="M494.708,320.719L494.708,320.719c-9.55,0-17.292-7.742-17.292-17.292V147.194
		c0-9.55,7.742-17.292,17.292-17.292l0,0c9.55,0,17.292,7.742,17.292,17.292v156.234C512,312.977,504.258,320.719,494.708,320.719z"
		/>
</g>
<g>
	<path style="fill:#FDBB00;" d="M477.416,298.717c0,0-40.407-51.182-99.67-51.182H101.348H41.762
		c-12.275,0-22.225-9.95-22.225-22.225l0,0c0-12.275,9.95-22.225,22.225-22.225h247.479h88.505c59.264,0,99.67-51.182,99.67-51.182"
		/>
	<path style="fill:#FDBB00;" d="M25.22,233.835H8.525c-4.709,0-8.525-3.817-8.525-8.525c0-4.708,3.816-8.525,8.525-8.525H25.22
		c4.709,0,8.525,3.817,8.525,8.525C33.745,230.018,29.929,233.835,25.22,233.835z"/>
</g>
</svg>